<svg width="13" height="14" viewBox="0 0 13 14" fill="none" xmlns="http://www.w3.org/2000/svg">
<path d="M12.06 4.46806C11.9096 4.29577 11.7871 4.10462 11.696 3.90044C11.6354 3.67723 11.6099 3.44727 11.62 3.21746C11.6588 2.8394 11.5683 2.45963 11.361 2.13074C11.0811 1.8468 10.7111 1.65023 10.303 1.56861C10.0637 1.5068 9.83507 1.41434 9.624 1.29395C9.4364 1.14968 9.27299 0.98095 9.139 0.793164C8.92561 0.460352 8.60396 0.196915 8.219 0.0396908C7.81842 -0.0362508 7.40204 0.00209362 7.026 0.149553C6.78626 0.230634 6.53502 0.279661 6.28 0.295121C6.02499 0.279661 5.77374 0.230634 5.534 0.149553C5.15865 -0.000322368 4.74143 -0.0387434 4.341 0.0396908C3.95545 0.196075 3.63354 0.459719 3.421 0.793164C3.28541 0.979828 3.12219 1.14836 2.936 1.29395C2.72522 1.41483 2.49655 1.50733 2.257 1.56861C1.84957 1.65188 1.48011 1.84818 1.199 2.13074C0.991673 2.45963 0.901163 2.8394 0.940002 3.21746C0.949821 3.44726 0.924236 3.67718 0.864002 3.90044C0.773428 4.10483 0.650805 4.29605 0.5 4.46806C0.217945 4.75937 0.0430355 5.12447 0 5.51176C0.0430355 5.89904 0.217945 6.26414 0.5 6.55545C0.650365 6.72775 0.77295 6.9189 0.864002 7.12307C0.924554 7.34629 0.950144 7.57625 0.940002 7.80605C0.901163 8.18412 0.991673 8.56389 1.199 8.89278C1.47889 9.17672 1.84886 9.37329 2.257 9.4549C2.49634 9.51671 2.72493 9.60918 2.936 9.72956C3.1236 9.87383 3.28701 10.0426 3.421 10.2304C3.521 10.3567 3.627 10.483 3.741 10.5966V12.9934C3.74136 13.1227 3.77875 13.2497 3.84944 13.3617C3.92013 13.4737 4.02166 13.5667 4.14389 13.6316C4.26612 13.6964 4.40478 13.7308 4.54605 13.7313C4.68732 13.7317 4.82626 13.6983 4.949 13.6343L6.097 13.0355C6.15243 13.0065 6.21516 12.9913 6.279 12.9913C6.34283 12.9913 6.40557 13.0065 6.461 13.0355L7.613 13.6352C7.73496 13.6986 7.87276 13.732 8.013 13.7322C8.22733 13.7308 8.43238 13.652 8.58366 13.513C8.73493 13.374 8.82022 13.186 8.821 12.9897V10.5966C8.936 10.4812 9.038 10.3549 9.141 10.2304C9.27659 10.0437 9.43981 9.87515 9.626 9.72956C9.83678 9.60868 10.0655 9.51618 10.305 9.4549C10.7124 9.37164 11.0819 9.17534 11.363 8.89278C11.5703 8.56389 11.6608 8.18412 11.622 7.80605C11.6117 7.57569 11.6369 7.34514 11.697 7.12124C11.7876 6.91685 11.9102 6.72564 12.061 6.55362C12.3431 6.26231 12.518 5.89721 12.561 5.50993C12.5119 5.12356 12.3346 4.76026 12.053 4.46898L12.06 4.46806ZM8.381 12.9961C8.38093 13.055 8.36403 13.1128 8.33198 13.1638C8.29993 13.2148 8.25384 13.2572 8.19832 13.2868C8.14279 13.3165 8.07976 13.3323 8.01549 13.3327C7.95122 13.3331 7.88796 13.318 7.832 13.2891L6.68 12.6894C6.55812 12.6259 6.42027 12.5924 6.28 12.5924C6.13973 12.5924 6.00188 12.6259 5.88 12.6894L4.728 13.2891C4.67204 13.318 4.60878 13.3331 4.54451 13.3327C4.48025 13.3323 4.41721 13.3165 4.36168 13.2868C4.30616 13.2572 4.26008 13.2148 4.22803 13.1638C4.19598 13.1128 4.17907 13.055 4.179 12.9961V10.9252C4.23042 10.9492 4.28354 10.97 4.338 10.9875C4.45104 11.0209 4.56924 11.0372 4.688 11.036C4.97691 11.0212 5.26192 10.9678 5.534 10.8776C5.76896 10.7818 6.0233 10.7323 6.2805 10.7323C6.53771 10.7323 6.79204 10.7818 7.027 10.8776C7.40235 11.0275 7.81957 11.0659 8.22 10.9875C8.27495 10.9712 8.32817 10.9503 8.379 10.9252V12.9971L8.381 12.9961ZM11.697 6.32474C11.5195 6.52907 11.3768 6.75688 11.274 7.00039C11.1977 7.26176 11.164 7.53201 11.174 7.80239C11.2074 8.09673 11.1474 8.39364 11.001 8.65749C10.7704 8.86917 10.4775 9.01486 10.158 9.0768C9.87525 9.1496 9.60571 9.26003 9.358 9.40455C9.13381 9.57235 8.93861 9.7702 8.779 9.9914C8.61469 10.2524 8.37164 10.4644 8.079 10.6021C7.76393 10.6453 7.44193 10.6063 7.15 10.4894C6.87221 10.3812 6.57341 10.3254 6.2715 10.3254C5.96959 10.3254 5.67079 10.3812 5.393 10.4894C5.10153 10.6077 4.77906 10.6468 4.464 10.6021C4.17072 10.4652 3.92744 10.253 3.764 9.9914C3.60267 9.77143 3.40768 9.57379 3.185 9.40455C2.93756 9.25958 2.66795 9.14912 2.385 9.0768C2.06586 9.01402 1.7732 8.86845 1.542 8.65749C1.39563 8.39364 1.33556 8.09673 1.369 7.80239C1.37899 7.53201 1.3453 7.26176 1.269 7.00039C1.16566 6.7571 1.02307 6.52935 0.846001 6.32474C0.62104 6.09823 0.474831 5.81554 0.426003 5.51267C0.475413 5.20997 0.621545 4.92742 0.846001 4.70061C1.02353 4.49628 1.16616 4.26847 1.269 4.02495C1.3453 3.76359 1.37899 3.49334 1.369 3.22296C1.33556 2.92862 1.39563 2.6317 1.542 2.36786C1.77261 2.15617 2.06552 2.01048 2.385 1.94855C2.66776 1.87574 2.9373 1.76531 3.185 1.6208C3.40919 1.453 3.60439 1.25515 3.764 1.03395C3.92831 0.772982 4.17136 0.560954 4.464 0.423294C4.53268 0.403937 4.60414 0.394063 4.676 0.393997C4.92017 0.410517 5.16055 0.458601 5.39 0.536819C5.67252 0.630978 5.96876 0.686206 6.269 0.700697C6.56921 0.685939 6.8654 0.630719 7.148 0.536819C7.43948 0.418528 7.76194 0.37944 8.077 0.42421C8.37028 0.561047 8.61356 0.773274 8.777 1.03486C8.93833 1.25484 9.13332 1.45247 9.356 1.62171C9.60344 1.76668 9.87306 1.87714 10.156 1.94947C10.4751 2.01224 10.7678 2.15781 10.999 2.36878C11.1454 2.63262 11.2054 2.92954 11.172 3.22387C11.162 3.49425 11.1957 3.7645 11.272 4.02587C11.3757 4.27024 11.519 4.49894 11.697 4.70427C11.922 4.93078 12.0682 5.21347 12.117 5.51634C12.0691 5.81836 11.9227 6.10012 11.697 6.32474ZM6.28 1.31684C5.37456 1.31684 4.48945 1.56265 3.7366 2.0232C2.98375 2.48374 2.39698 3.13832 2.05048 3.90417C1.70398 4.67002 1.61332 5.51275 1.78997 6.32577C1.96661 7.13879 2.40262 7.8856 3.04287 8.47176C3.68311 9.05792 4.49883 9.45709 5.38688 9.61882C6.27492 9.78054 7.19541 9.69753 8.03193 9.38031C8.86845 9.06308 9.58343 8.52588 10.0865 7.83663C10.5895 7.14738 10.858 6.33705 10.858 5.5081C10.8564 4.39695 10.3736 3.33173 9.51538 2.54604C8.65718 1.76034 7.49368 1.3183 6.28 1.31684ZM6.28 9.29652C5.46165 9.29652 4.66169 9.07432 3.9813 8.65802C3.30091 8.24172 2.77066 7.65003 2.45763 6.95779C2.14459 6.26556 2.06284 5.50387 2.22271 4.76909C2.38258 4.03431 2.77689 3.35945 3.35576 2.82987C3.93463 2.30028 4.67206 1.93978 5.47475 1.79394C6.27745 1.64811 7.10936 1.72351 7.86524 2.0106C8.62113 2.29769 9.26703 2.78357 9.72125 3.40678C10.1755 4.03 10.4176 4.76254 10.417 5.51176C10.4157 6.51598 9.97943 7.47874 9.2039 8.18892C8.42838 8.8991 7.37689 9.29873 6.28 9.30018V9.29652ZM7.761 3.87023L4.661 6.70285C4.62026 6.74085 4.59744 6.79197 4.59744 6.84521C4.59744 6.89846 4.62026 6.94958 4.661 6.98758C4.70225 7.02531 4.75818 7.04651 4.8165 7.04651C4.87482 7.04651 4.93075 7.02531 4.972 6.98758L8.072 4.15496C8.11132 4.11684 8.13285 4.0662 8.13203 4.01378C8.13122 3.96137 8.10811 3.91131 8.06762 3.87424C8.02713 3.83717 7.97245 3.81602 7.9152 3.81527C7.85795 3.81452 7.80263 3.83424 7.761 3.87023ZM6.706 5.90269C6.62782 5.97389 6.56597 6.05867 6.52407 6.15206C6.48217 6.24544 6.46107 6.34555 6.462 6.4465C6.46156 6.65019 6.5493 6.84573 6.706 6.99032C6.78377 7.0619 6.87638 7.11852 6.97838 7.15688C7.08039 7.19524 7.18973 7.21456 7.3 7.21371C7.41046 7.21463 7.52004 7.19562 7.62247 7.15776C7.72491 7.1199 7.81819 7.06394 7.897 6.99307C7.97518 6.92092 8.03672 6.8351 8.07795 6.74074C8.11918 6.64637 8.13926 6.54537 8.137 6.44376C8.13786 6.29163 8.08924 6.1427 7.99733 6.01596C7.90541 5.88921 7.77437 5.79039 7.6209 5.73206C7.46742 5.67374 7.29846 5.65856 7.13553 5.68845C6.9726 5.71835 6.82307 5.79197 6.706 5.89994V5.90269ZM7.579 6.70193C7.5424 6.73644 7.49854 6.76381 7.45008 6.78237C7.40161 6.80094 7.34954 6.81033 7.297 6.80997C7.24493 6.81022 7.19334 6.80077 7.14537 6.7822C7.09741 6.76363 7.05407 6.73632 7.018 6.70193C6.94361 6.63425 6.90124 6.54252 6.9 6.4465C6.89972 6.39883 6.91004 6.3516 6.93033 6.30769C6.95061 6.26378 6.98044 6.2241 7.018 6.19107C7.09268 6.12452 7.19278 6.08729 7.297 6.08729C7.40122 6.08729 7.50132 6.12452 7.576 6.19107C7.61351 6.22371 7.64354 6.26286 7.66431 6.30625C7.68509 6.34964 7.6962 6.39639 7.697 6.44376C7.69742 6.49181 7.68708 6.53943 7.66661 6.58368C7.64614 6.62792 7.61599 6.66786 7.578 6.70102L7.579 6.70193ZM5.26 5.34513C5.48238 5.34504 5.69576 5.26479 5.854 5.12175C5.93218 5.05054 5.99403 4.96576 6.03593 4.87237C6.07783 4.77899 6.09893 4.67888 6.098 4.57793C6.09844 4.37424 6.0107 4.1787 5.854 4.03411C5.77623 3.96254 5.68362 3.90591 5.58162 3.86755C5.47962 3.82919 5.37027 3.80987 5.26 3.81072C5.03788 3.81072 4.82486 3.8915 4.6678 4.0353C4.51074 4.17909 4.4225 4.37411 4.4225 4.57747C4.4225 4.78082 4.51074 4.97585 4.6678 5.11964C4.82486 5.26344 5.03788 5.34422 5.26 5.34422V5.34513ZM4.981 4.31975C5.01725 4.28557 5.06062 4.25841 5.10854 4.23985C5.15647 4.22129 5.20797 4.21173 5.26 4.21172C5.31208 4.21146 5.36367 4.22091 5.41163 4.23948C5.45959 4.25805 5.50293 4.28536 5.539 4.31975C5.57633 4.35294 5.60601 4.39264 5.62627 4.43652C5.64654 4.48039 5.65699 4.52754 5.657 4.57518C5.65728 4.62286 5.64696 4.67009 5.62667 4.714C5.60639 4.75791 5.57656 4.79759 5.539 4.83061C5.50275 4.86479 5.45938 4.89196 5.41146 4.91051C5.36354 4.92907 5.31204 4.93863 5.26 4.93864C5.20793 4.9389 5.15633 4.92945 5.10837 4.91088C5.06041 4.89231 5.01707 4.865 4.981 4.83061C4.9076 4.76332 4.86637 4.67211 4.86637 4.57701C4.86637 4.48191 4.9076 4.3907 4.981 4.32341V4.31975Z" fill="#E82828"/>
</svg>
